<?xml version="1.0" encoding="UTF-8"?>
<!DOCTYPE svg PUBLIC "-//W3C//DTD SVG 1.1//EN" "http://www.w3.org/Graphics/SVG/1.1/DTD/svg11.dtd">
<!-- Creator: CorelDRAW -->
<svg xmlns="http://www.w3.org/2000/svg" xml:space="preserve" width="6.82666in" height="6.82666in" style="shape-rendering:geometricPrecision; text-rendering:geometricPrecision; image-rendering:optimizeQuality; fill-rule:evenodd; clip-rule:evenodd"
viewBox="0 0 6.82666 6.82666"
 xmlns:xlink="http://www.w3.org/1999/xlink">
 <defs>
  <style type="text/css">
   <![CDATA[
    .fil3 {fill:none}
    .fil0 {fill:#424242}
    .fil1 {fill:#FFFFFE}
    .fil2 {fill:#FFFFFE;fill-rule:nonzero}
   ]]>
  </style>
 </defs>
 <rect class="fil0" width="6.82666" height="6.82666"/>
 <g id="Layer_x0020_1">
  <metadata id="CorelCorpID_0Corel-Layer"/>
  <polygon class="fil1" points="1.37052,3.00478 5.45689,3.00478 5.45689,5.92244 3.94704,5.92244 3.94704,3.78652 2.88037,3.78652 2.88037,5.92244 1.37052,5.92244 "/>
  <path class="fil2" d="M1.82728 0.867547l3.16685 0c0.0396732,0 0.0742874,0.0216654 0.0926654,0.0538071l0.821807 1.23687 0.000192913 -0.000125984c0.0325984,0.049063 0.019252,0.115276 -0.029811,0.147874 -0.0184567,0.0122638 -0.0393386,0.0180236 -0.0599488,0.0178268l-4.81771 0c-0.0589094,0 -0.106669,-0.0477598 -0.106669,-0.106669 0,-0.0243425 0.00816142,-0.0467795 0.0218898,-0.0647323l0.82185 -1.23693 0.088752 0.058752 -0.0888425 -0.0590315c0.0205433,-0.0309213 0.054437,-0.0476457 0.0889764,-0.0476378z"/>
  <path class="fil2" d="M0.899799 2.40479c0.0245866,0.111504 0.0812087,0.211209 0.159823,0.289161 0.107079,0.106169 0.254646,0.171839 0.417311,0.171839 0.162669,0 0.31024,-0.0656693 0.417311,-0.171839 0.0245039,-0.0242992 0.0468622,-0.0507126 0.0667913,-0.0789331 0.0199252,0.0282205 0.0422835,0.0546378 0.0667874,0.0789331 0.107079,0.106169 0.254646,0.171839 0.417311,0.171839 0.162665,0 0.310232,-0.0656693 0.417311,-0.171839 0.0245039,-0.0242953 0.0468622,-0.0507126 0.0667874,-0.0789331 0.0199252,0.0282205 0.0422835,0.0546378 0.0667874,0.0789331 0.107079,0.106169 0.254646,0.171839 0.417311,0.171839 0.162669,0 0.31024,-0.0656693 0.417311,-0.171839 0.0245039,-0.0242953 0.0468622,-0.0507126 0.0667913,-0.0789331 0.0199252,0.0282205 0.0422835,0.0546378 0.0667874,0.0789331 0.107079,0.106169 0.254646,0.171839 0.417311,0.171839 0.162665,0 0.310232,-0.0656693 0.417311,-0.171839 0.0245039,-0.0242953 0.0468622,-0.0507126 0.0667874,-0.0789331 0.0199291,0.0282205 0.0422874,0.0546339 0.0667913,0.0789331 0.107071,0.106169 0.254642,0.171839 0.417311,0.171839 0.162665,0 0.310232,-0.0656693 0.417311,-0.171839 0.079437,-0.0787638 0.136402,-0.17974 0.160571,-0.292654 -0.0329173,0.0192283 -0.0702913,0.0291693 -0.108583,0.0291693l-4.81771 0c-0.036748,0 -0.0713307,-0.00930315 -0.10152,-0.0256772z"/>
 </g>
 <rect class="fil3" width="6.82666" height="6.82666"/>
</svg>
